<svg xmlns="http://www.w3.org/2000/svg" xmlns:xlink="http://www.w3.org/1999/xlink" width="500" zoomAndPan="magnify" viewBox="0 0 375 374.999991" height="500" preserveAspectRatio="xMidYMid meet" version="1.0"><defs><g/></defs><g fill="#0477bf" fill-opacity="1"><g transform="translate(0.0000045, 145.045796)"><g><path d="M 19.71875 0.515625 C 16.394531 0.515625 13.46875 -0.171875 10.9375 -1.546875 C 8.40625 -2.929688 6.421875 -5.007812 4.984375 -7.78125 C 3.554688 -10.5625 2.84375 -13.984375 2.84375 -18.046875 C 2.84375 -22.109375 3.554688 -25.523438 4.984375 -28.296875 C 6.421875 -31.066406 8.40625 -33.144531 10.9375 -34.53125 C 13.46875 -35.914062 16.394531 -36.609375 19.71875 -36.609375 C 23.1875 -36.609375 26.132812 -35.925781 28.5625 -34.5625 C 30.988281 -33.207031 32.722656 -31.140625 33.765625 -28.359375 L 28.5625 -25.171875 L 27.9375 -25.203125 C 27.164062 -27.078125 26.117188 -28.421875 24.796875 -29.234375 C 23.472656 -30.046875 21.78125 -30.453125 19.71875 -30.453125 C 16.726562 -30.453125 14.390625 -29.460938 12.703125 -27.484375 C 11.023438 -25.503906 10.1875 -22.359375 10.1875 -18.046875 C 10.1875 -13.742188 11.023438 -10.601562 12.703125 -8.625 C 14.390625 -6.644531 16.726562 -5.65625 19.71875 -5.65625 C 24.40625 -5.65625 27.273438 -7.929688 28.328125 -12.484375 L 28.953125 -12.484375 L 34.203125 -9.75 C 33.222656 -6.320312 31.535156 -3.753906 29.140625 -2.046875 C 26.753906 -0.335938 23.613281 0.515625 19.71875 0.515625 Z M 19.71875 0.515625 "/></g></g></g><g fill="#0477bf" fill-opacity="1"><g transform="translate(46.61471, 145.045796)"><g><path d="M 19.125 0.515625 C 14.15625 0.515625 10.46875 -0.660156 8.0625 -3.015625 C 5.664062 -5.378906 4.46875 -8.882812 4.46875 -13.53125 L 4.46875 -36.078125 L 11.453125 -36.078125 L 11.453125 -13.578125 C 11.453125 -10.941406 12.082031 -8.960938 13.34375 -7.640625 C 14.613281 -6.328125 16.539062 -5.671875 19.125 -5.671875 C 24.238281 -5.671875 26.796875 -8.304688 26.796875 -13.578125 L 26.796875 -36.078125 L 33.78125 -36.078125 L 33.78125 -13.53125 C 33.78125 -8.882812 32.578125 -5.378906 30.171875 -3.015625 C 27.773438 -0.660156 24.09375 0.515625 19.125 0.515625 Z M 19.125 0.515625 "/></g></g></g><g fill="#0477bf" fill-opacity="1"><g transform="translate(96.092338, 145.045796)"><g><path d="M 16 0.515625 C 13.488281 0.515625 11.257812 0.207031 9.3125 -0.40625 C 7.363281 -1.019531 5.738281 -1.828125 4.4375 -2.828125 C 3.144531 -3.835938 2.148438 -4.941406 1.453125 -6.140625 L 5.375 -10.9375 L 6 -10.9375 C 7.082031 -9.320312 8.457031 -8.035156 10.125 -7.078125 C 11.800781 -6.128906 13.757812 -5.65625 16 -5.65625 C 17.90625 -5.65625 19.34375 -6.054688 20.3125 -6.859375 C 21.28125 -7.671875 21.765625 -8.78125 21.765625 -10.1875 C 21.765625 -11.050781 21.609375 -11.769531 21.296875 -12.34375 C 20.984375 -12.914062 20.460938 -13.40625 19.734375 -13.8125 C 19.015625 -14.226562 18.039062 -14.582031 16.8125 -14.875 L 12.171875 -15.9375 C 8.929688 -16.675781 6.515625 -17.90625 4.921875 -19.625 C 3.335938 -21.351562 2.546875 -23.585938 2.546875 -26.328125 C 2.546875 -28.367188 3.054688 -30.160156 4.078125 -31.703125 C 5.097656 -33.253906 6.582031 -34.457031 8.53125 -35.3125 C 10.476562 -36.175781 12.8125 -36.609375 15.53125 -36.609375 C 18.3125 -36.609375 20.691406 -36.238281 22.671875 -35.5 C 24.648438 -34.769531 26.320312 -33.648438 27.6875 -32.140625 L 24.15625 -27.296875 L 23.546875 -27.296875 C 22.523438 -28.367188 21.351562 -29.171875 20.03125 -29.703125 C 18.71875 -30.234375 17.21875 -30.5 15.53125 -30.5 C 13.570312 -30.5 12.082031 -30.15625 11.0625 -29.46875 C 10.039062 -28.78125 9.53125 -27.828125 9.53125 -26.609375 C 9.53125 -25.472656 9.882812 -24.566406 10.59375 -23.890625 C 11.3125 -23.210938 12.550781 -22.6875 14.3125 -22.3125 L 19.046875 -21.328125 C 22.554688 -20.585938 25.097656 -19.332031 26.671875 -17.5625 C 28.253906 -15.789062 29.046875 -13.484375 29.046875 -10.640625 C 29.046875 -8.378906 28.5625 -6.414062 27.59375 -4.75 C 26.625 -3.082031 25.160156 -1.785156 23.203125 -0.859375 C 21.242188 0.0546875 18.84375 0.515625 16 0.515625 Z M 16 0.515625 "/></g></g></g><g fill="#0477bf" fill-opacity="1"><g transform="translate(138.313939, 145.045796)"><g><path d="M 28.921875 -36.078125 L 28.921875 -30.09375 L 18.515625 -30.09375 L 18.515625 0 L 11.40625 0 L 11.40625 -30.09375 L 0.984375 -30.09375 L 0.984375 -36.078125 Z M 28.921875 -36.078125 "/></g></g></g><g fill="#0477bf" fill-opacity="1"><g transform="translate(179.449602, 145.045796)"><g><path d="M 19.671875 0.515625 C 16.359375 0.515625 13.441406 -0.15625 10.921875 -1.5 C 8.398438 -2.851562 6.421875 -4.914062 4.984375 -7.6875 C 3.554688 -10.457031 2.84375 -13.910156 2.84375 -18.046875 C 2.84375 -22.171875 3.554688 -25.617188 4.984375 -28.390625 C 6.421875 -31.160156 8.398438 -33.222656 10.921875 -34.578125 C 13.441406 -35.929688 16.359375 -36.609375 19.671875 -36.609375 C 22.972656 -36.609375 25.882812 -35.9375 28.40625 -34.59375 C 30.925781 -33.25 32.894531 -31.1875 34.3125 -28.40625 C 35.738281 -25.625 36.453125 -22.171875 36.453125 -18.046875 C 36.453125 -13.910156 35.738281 -10.453125 34.3125 -7.671875 C 32.894531 -4.890625 30.925781 -2.828125 28.40625 -1.484375 C 25.882812 -0.148438 22.972656 0.515625 19.671875 0.515625 Z M 19.671875 -5.671875 C 22.734375 -5.671875 25.066406 -6.65625 26.671875 -8.625 C 28.285156 -10.59375 29.09375 -13.734375 29.09375 -18.046875 C 29.09375 -22.359375 28.285156 -25.5 26.671875 -27.46875 C 25.066406 -29.445312 22.734375 -30.4375 19.671875 -30.4375 C 16.597656 -30.4375 14.25 -29.445312 12.625 -27.46875 C 11 -25.5 10.1875 -22.359375 10.1875 -18.046875 C 10.1875 -13.734375 11 -10.59375 12.625 -8.625 C 14.25 -6.65625 16.597656 -5.671875 19.671875 -5.671875 Z M 19.671875 -5.671875 "/></g></g></g><g fill="#0477bf" fill-opacity="1"><g transform="translate(229.9885, 145.045796)"><g><path d="M 11.234375 0 L 4.6875 0 L 4.6875 -36.078125 L 14.015625 -36.078125 L 23.15625 -9.546875 L 23.671875 -9.546875 L 32.75 -36.078125 L 41.859375 -36.078125 L 41.859375 0 L 35.09375 0 L 35.09375 -23.84375 L 34.484375 -23.9375 L 26.140625 0 L 20.1875 0 L 11.84375 -23.9375 L 11.234375 -23.84375 Z M 11.234375 0 "/></g></g></g><g fill="#0477bf" fill-opacity="1"><g transform="translate(287.783425, 145.045796)"><g><path d="M 11.828125 -15.84375 L 11.828125 -5.96875 L 29.046875 -5.96875 L 29.046875 0 L 4.6875 0 L 4.6875 -36.078125 L 28.65625 -36.078125 L 28.65625 -30.109375 L 11.828125 -30.109375 L 11.828125 -21.671875 L 26.53125 -21.671875 L 26.53125 -15.84375 Z M 11.828125 -15.84375 "/></g></g></g><g fill="#0477bf" fill-opacity="1"><g transform="translate(330.029719, 145.045796)"><g><path d="M 4.6875 0 L 4.6875 -36.078125 L 19.171875 -36.078125 C 22.910156 -36.078125 25.726562 -35.21875 27.625 -33.5 C 29.53125 -31.78125 30.484375 -29.410156 30.484375 -26.390625 C 30.484375 -24.191406 29.925781 -22.394531 28.8125 -21 C 27.707031 -19.601562 26.050781 -18.535156 23.84375 -17.796875 L 23.84375 -17.28125 C 24.976562 -16.78125 25.894531 -16.046875 26.59375 -15.078125 C 27.289062 -14.109375 27.953125 -12.671875 28.578125 -10.765625 L 32.1875 0 L 24.859375 0 L 21.328125 -10.78125 C 20.960938 -11.875 20.550781 -12.71875 20.09375 -13.3125 C 19.644531 -13.914062 19.070312 -14.351562 18.375 -14.625 C 17.675781 -14.894531 16.765625 -15.03125 15.640625 -15.03125 L 11.828125 -15.03125 L 11.828125 0 Z M 18.3125 -20.6875 C 21.769531 -20.6875 23.5 -22.296875 23.5 -25.515625 C 23.5 -28.796875 21.769531 -30.4375 18.3125 -30.4375 L 11.828125 -30.4375 L 11.828125 -20.6875 Z M 18.3125 -20.6875 "/></g></g></g><g fill="#112241" fill-opacity="1"><g transform="translate(0.0000045, 205.596155)"><g><path d="M 4.6875 0 L 4.6875 -36.078125 L 19.171875 -36.078125 C 22.910156 -36.078125 25.726562 -35.21875 27.625 -33.5 C 29.53125 -31.78125 30.484375 -29.410156 30.484375 -26.390625 C 30.484375 -24.191406 29.925781 -22.394531 28.8125 -21 C 27.707031 -19.601562 26.050781 -18.535156 23.84375 -17.796875 L 23.84375 -17.28125 C 24.976562 -16.78125 25.894531 -16.046875 26.59375 -15.078125 C 27.289062 -14.109375 27.953125 -12.671875 28.578125 -10.765625 L 32.1875 0 L 24.859375 0 L 21.328125 -10.78125 C 20.960938 -11.875 20.550781 -12.71875 20.09375 -13.3125 C 19.644531 -13.914062 19.070312 -14.351562 18.375 -14.625 C 17.675781 -14.894531 16.765625 -15.03125 15.640625 -15.03125 L 11.828125 -15.03125 L 11.828125 0 Z M 18.3125 -20.6875 C 21.769531 -20.6875 23.5 -22.296875 23.5 -25.515625 C 23.5 -28.796875 21.769531 -30.4375 18.3125 -30.4375 L 11.828125 -30.4375 L 11.828125 -20.6875 Z M 18.3125 -20.6875 "/></g></g></g><g fill="#112241" fill-opacity="1"><g transform="translate(33.73808, 205.596155)"><g><path d="M 11.828125 -15.84375 L 11.828125 -5.96875 L 29.046875 -5.96875 L 29.046875 0 L 4.6875 0 L 4.6875 -36.078125 L 28.65625 -36.078125 L 28.65625 -30.109375 L 11.828125 -30.109375 L 11.828125 -21.671875 L 26.53125 -21.671875 L 26.53125 -15.84375 Z M 11.828125 -15.84375 "/></g></g></g><g fill="#112241" fill-opacity="1"><g transform="translate(64.761315, 205.596155)"><g><path d="M 11.828125 -36.078125 L 11.828125 -5.96875 L 28.03125 -5.96875 L 28.03125 0 L 4.6875 0 L 4.6875 -36.078125 Z M 11.828125 -36.078125 "/></g></g></g><g fill="#112241" fill-opacity="1"><g transform="translate(93.982869, 205.596155)"><g><path d="M 34.625 0 L 27.125 0 L 24.40625 -8.3125 L 10.59375 -8.3125 L 7.875 0 L 0.546875 0 L 13 -36.078125 L 22.15625 -36.078125 Z M 17.15625 -28.5625 L 12.515625 -14.3125 L 22.4375 -14.3125 L 17.765625 -28.5625 Z M 17.15625 -28.5625 "/></g></g></g><g fill="#112241" fill-opacity="1"><g transform="translate(129.152406, 205.596155)"><g><path d="M 28.921875 -36.078125 L 28.921875 -30.09375 L 18.515625 -30.09375 L 18.515625 0 L 11.40625 0 L 11.40625 -30.09375 L 0.984375 -30.09375 L 0.984375 -36.078125 Z M 28.921875 -36.078125 "/></g></g></g><g fill="#112241" fill-opacity="1"><g transform="translate(159.065012, 205.596155)"><g><path d="M 11.828125 0 L 4.6875 0 L 4.6875 -36.078125 L 11.828125 -36.078125 Z M 11.828125 0 "/></g></g></g><g fill="#112241" fill-opacity="1"><g transform="translate(175.600859, 205.596155)"><g><path d="M 19.671875 0.515625 C 16.359375 0.515625 13.441406 -0.15625 10.921875 -1.5 C 8.398438 -2.851562 6.421875 -4.914062 4.984375 -7.6875 C 3.554688 -10.457031 2.84375 -13.910156 2.84375 -18.046875 C 2.84375 -22.171875 3.554688 -25.617188 4.984375 -28.390625 C 6.421875 -31.160156 8.398438 -33.222656 10.921875 -34.578125 C 13.441406 -35.929688 16.359375 -36.609375 19.671875 -36.609375 C 22.972656 -36.609375 25.882812 -35.9375 28.40625 -34.59375 C 30.925781 -33.25 32.894531 -31.1875 34.3125 -28.40625 C 35.738281 -25.625 36.453125 -22.171875 36.453125 -18.046875 C 36.453125 -13.910156 35.738281 -10.453125 34.3125 -7.671875 C 32.894531 -4.890625 30.925781 -2.828125 28.40625 -1.484375 C 25.882812 -0.148438 22.972656 0.515625 19.671875 0.515625 Z M 19.671875 -5.671875 C 22.734375 -5.671875 25.066406 -6.65625 26.671875 -8.625 C 28.285156 -10.59375 29.09375 -13.734375 29.09375 -18.046875 C 29.09375 -22.359375 28.285156 -25.5 26.671875 -27.46875 C 25.066406 -29.445312 22.734375 -30.4375 19.671875 -30.4375 C 16.597656 -30.4375 14.25 -29.445312 12.625 -27.46875 C 11 -25.5 10.1875 -22.359375 10.1875 -18.046875 C 10.1875 -13.734375 11 -10.59375 12.625 -8.625 C 14.25 -6.65625 16.597656 -5.671875 19.671875 -5.671875 Z M 19.671875 -5.671875 "/></g></g></g><g fill="#112241" fill-opacity="1"><g transform="translate(214.916698, 205.596155)"><g><path d="M 11.59375 0 L 4.6875 0 L 4.6875 -36.078125 L 12.859375 -36.078125 L 27.34375 -12.828125 L 27.984375 -12.9375 L 27.984375 -36.078125 L 34.84375 -36.078125 L 34.84375 0 L 27.546875 0 L 12.21875 -24.828125 L 11.59375 -24.734375 Z M 11.59375 0 "/></g></g></g><g fill="#112241" fill-opacity="1"><g transform="translate(254.47934, 205.596155)"><g><path d="M 16 0.515625 C 13.488281 0.515625 11.257812 0.207031 9.3125 -0.40625 C 7.363281 -1.019531 5.738281 -1.828125 4.4375 -2.828125 C 3.144531 -3.835938 2.148438 -4.941406 1.453125 -6.140625 L 5.375 -10.9375 L 6 -10.9375 C 7.082031 -9.320312 8.457031 -8.035156 10.125 -7.078125 C 11.800781 -6.128906 13.757812 -5.65625 16 -5.65625 C 17.90625 -5.65625 19.34375 -6.054688 20.3125 -6.859375 C 21.28125 -7.671875 21.765625 -8.78125 21.765625 -10.1875 C 21.765625 -11.050781 21.609375 -11.769531 21.296875 -12.34375 C 20.984375 -12.914062 20.460938 -13.40625 19.734375 -13.8125 C 19.015625 -14.226562 18.039062 -14.582031 16.8125 -14.875 L 12.171875 -15.9375 C 8.929688 -16.675781 6.515625 -17.90625 4.921875 -19.625 C 3.335938 -21.351562 2.546875 -23.585938 2.546875 -26.328125 C 2.546875 -28.367188 3.054688 -30.160156 4.078125 -31.703125 C 5.097656 -33.253906 6.582031 -34.457031 8.53125 -35.3125 C 10.476562 -36.175781 12.8125 -36.609375 15.53125 -36.609375 C 18.3125 -36.609375 20.691406 -36.238281 22.671875 -35.5 C 24.648438 -34.769531 26.320312 -33.648438 27.6875 -32.140625 L 24.15625 -27.296875 L 23.546875 -27.296875 C 22.523438 -28.367188 21.351562 -29.171875 20.03125 -29.703125 C 18.71875 -30.234375 17.21875 -30.5 15.53125 -30.5 C 13.570312 -30.5 12.082031 -30.15625 11.0625 -29.46875 C 10.039062 -28.78125 9.53125 -27.828125 9.53125 -26.609375 C 9.53125 -25.472656 9.882812 -24.566406 10.59375 -23.890625 C 11.3125 -23.210938 12.550781 -22.6875 14.3125 -22.3125 L 19.046875 -21.328125 C 22.554688 -20.585938 25.097656 -19.332031 26.671875 -17.5625 C 28.253906 -15.789062 29.046875 -13.484375 29.046875 -10.640625 C 29.046875 -8.378906 28.5625 -6.414062 27.59375 -4.75 C 26.625 -3.082031 25.160156 -1.785156 23.203125 -0.859375 C 21.242188 0.0546875 18.84375 0.515625 16 0.515625 Z M 16 0.515625 "/></g></g></g><g fill="#112241" fill-opacity="1"><g transform="translate(285.477881, 205.596155)"><g><path d="M 27.984375 -22.515625 L 27.984375 -36.078125 L 35.09375 -36.078125 L 35.09375 0 L 27.984375 0 L 27.984375 -16.4375 L 11.828125 -16.4375 L 11.828125 0 L 4.6875 0 L 4.6875 -36.078125 L 11.828125 -36.078125 L 11.828125 -22.515625 Z M 27.984375 -22.515625 "/></g></g></g><g fill="#112241" fill-opacity="1"><g transform="translate(325.287327, 205.596155)"><g><path d="M 11.828125 0 L 4.6875 0 L 4.6875 -36.078125 L 11.828125 -36.078125 Z M 11.828125 0 "/></g></g></g><g fill="#112241" fill-opacity="1"><g transform="translate(341.823173, 205.596155)"><g><path d="M 18.640625 -36.078125 C 21.222656 -36.078125 23.429688 -35.601562 25.265625 -34.65625 C 27.097656 -33.71875 28.484375 -32.394531 29.421875 -30.6875 C 30.359375 -28.988281 30.828125 -27.007812 30.828125 -24.75 C 30.828125 -22.5 30.359375 -20.523438 29.421875 -18.828125 C 28.484375 -17.140625 27.097656 -15.820312 25.265625 -14.875 C 23.429688 -13.925781 21.222656 -13.453125 18.640625 -13.453125 L 11.828125 -13.453125 L 11.828125 0 L 4.6875 0 L 4.6875 -36.078125 Z M 17.703125 -19.109375 C 21.660156 -19.109375 23.640625 -20.988281 23.640625 -24.75 C 23.640625 -28.539062 21.660156 -30.4375 17.703125 -30.4375 L 11.828125 -30.4375 L 11.828125 -19.109375 Z M 17.703125 -19.109375 "/></g></g></g><g fill="#0477bf" fill-opacity="1"><g transform="translate(0.0000045, 266.146524)"><g><path d="M 11.234375 0 L 4.6875 0 L 4.6875 -36.078125 L 14.015625 -36.078125 L 23.15625 -9.546875 L 23.671875 -9.546875 L 32.75 -36.078125 L 41.859375 -36.078125 L 41.859375 0 L 35.09375 0 L 35.09375 -23.84375 L 34.484375 -23.9375 L 26.140625 0 L 20.1875 0 L 11.84375 -23.9375 L 11.234375 -23.84375 Z M 11.234375 0 "/></g></g></g><g fill="#0477bf" fill-opacity="1"><g transform="translate(46.824641, 266.146524)"><g><path d="M 34.625 0 L 27.125 0 L 24.40625 -8.3125 L 10.59375 -8.3125 L 7.875 0 L 0.546875 0 L 13 -36.078125 L 22.15625 -36.078125 Z M 17.15625 -28.5625 L 12.515625 -14.3125 L 22.4375 -14.3125 L 17.765625 -28.5625 Z M 17.15625 -28.5625 "/></g></g></g><g fill="#0477bf" fill-opacity="1"><g transform="translate(82.246947, 266.146524)"><g><path d="M 11.59375 0 L 4.6875 0 L 4.6875 -36.078125 L 12.859375 -36.078125 L 27.34375 -12.828125 L 27.984375 -12.9375 L 27.984375 -36.078125 L 34.84375 -36.078125 L 34.84375 0 L 27.546875 0 L 12.21875 -24.828125 L 11.59375 -24.734375 Z M 11.59375 0 "/></g></g></g><g fill="#0477bf" fill-opacity="1"><g transform="translate(122.062356, 266.146524)"><g><path d="M 34.625 0 L 27.125 0 L 24.40625 -8.3125 L 10.59375 -8.3125 L 7.875 0 L 0.546875 0 L 13 -36.078125 L 22.15625 -36.078125 Z M 17.15625 -28.5625 L 12.515625 -14.3125 L 22.4375 -14.3125 L 17.765625 -28.5625 Z M 17.15625 -28.5625 "/></g></g></g><g fill="#0477bf" fill-opacity="1"><g transform="translate(157.484665, 266.146524)"><g><path d="M 17.53125 0.515625 C 14.507812 0.515625 11.898438 -0.171875 9.703125 -1.546875 C 7.515625 -2.921875 5.820312 -4.992188 4.625 -7.765625 C 3.4375 -10.535156 2.84375 -13.960938 2.84375 -18.046875 C 2.84375 -22.160156 3.554688 -25.601562 4.984375 -28.375 C 6.421875 -31.144531 8.410156 -33.207031 10.953125 -34.5625 C 13.492188 -35.925781 16.441406 -36.609375 19.796875 -36.609375 C 23.253906 -36.609375 26.195312 -35.960938 28.625 -34.671875 C 31.0625 -33.390625 32.773438 -31.484375 33.765625 -28.953125 L 28.5625 -25.796875 L 27.9375 -25.8125 C 27.195312 -27.425781 26.15625 -28.601562 24.8125 -29.34375 C 23.476562 -30.082031 21.804688 -30.453125 19.796875 -30.453125 C 16.679688 -30.453125 14.300781 -29.46875 12.65625 -27.5 C 11.007812 -25.539062 10.1875 -22.390625 10.1875 -18.046875 C 10.1875 -13.679688 10.957031 -10.507812 12.5 -8.53125 C 14.039062 -6.5625 16.316406 -5.578125 19.328125 -5.578125 C 21.921875 -5.578125 23.832031 -6.160156 25.0625 -7.328125 C 26.300781 -8.492188 26.921875 -10.238281 26.921875 -12.5625 L 26.921875 -14.125 L 18.390625 -14.125 L 18.390625 -19.921875 L 34.015625 -19.921875 L 34.015625 0 L 27.203125 0 L 27.203125 -4.84375 L 26.6875 -4.90625 C 25.9375 -3.175781 24.804688 -1.835938 23.296875 -0.890625 C 21.796875 0.046875 19.875 0.515625 17.53125 0.515625 Z M 17.53125 0.515625 "/></g></g></g><g fill="#0477bf" fill-opacity="1"><g transform="translate(195.375013, 266.146524)"><g><path d="M 11.828125 -15.84375 L 11.828125 -5.96875 L 29.046875 -5.96875 L 29.046875 0 L 4.6875 0 L 4.6875 -36.078125 L 28.65625 -36.078125 L 28.65625 -30.109375 L 11.828125 -30.109375 L 11.828125 -21.671875 L 26.53125 -21.671875 L 26.53125 -15.84375 Z M 11.828125 -15.84375 "/></g></g></g><g fill="#0477bf" fill-opacity="1"><g transform="translate(226.651008, 266.146524)"><g><path d="M 11.234375 0 L 4.6875 0 L 4.6875 -36.078125 L 14.015625 -36.078125 L 23.15625 -9.546875 L 23.671875 -9.546875 L 32.75 -36.078125 L 41.859375 -36.078125 L 41.859375 0 L 35.09375 0 L 35.09375 -23.84375 L 34.484375 -23.9375 L 26.140625 0 L 20.1875 0 L 11.84375 -23.9375 L 11.234375 -23.84375 Z M 11.234375 0 "/></g></g></g><g fill="#0477bf" fill-opacity="1"><g transform="translate(273.475648, 266.146524)"><g><path d="M 11.828125 -15.84375 L 11.828125 -5.96875 L 29.046875 -5.96875 L 29.046875 0 L 4.6875 0 L 4.6875 -36.078125 L 28.65625 -36.078125 L 28.65625 -30.109375 L 11.828125 -30.109375 L 11.828125 -21.671875 L 26.53125 -21.671875 L 26.53125 -15.84375 Z M 11.828125 -15.84375 "/></g></g></g><g fill="#0477bf" fill-opacity="1"><g transform="translate(304.751657, 266.146524)"><g><path d="M 11.59375 0 L 4.6875 0 L 4.6875 -36.078125 L 12.859375 -36.078125 L 27.34375 -12.828125 L 27.984375 -12.9375 L 27.984375 -36.078125 L 34.84375 -36.078125 L 34.84375 0 L 27.546875 0 L 12.21875 -24.828125 L 11.59375 -24.734375 Z M 11.59375 0 "/></g></g></g><g fill="#0477bf" fill-opacity="1"><g transform="translate(344.567073, 266.146524)"><g><path d="M 28.921875 -36.078125 L 28.921875 -30.09375 L 18.515625 -30.09375 L 18.515625 0 L 11.40625 0 L 11.40625 -30.09375 L 0.984375 -30.09375 L 0.984375 -36.078125 Z M 28.921875 -36.078125 "/></g></g></g></svg>